<?xml version="1.0" ?><!DOCTYPE svg  PUBLIC '-//W3C//DTD SVG 1.1//EN'  'http://www.w3.org/Graphics/SVG/1.1/DTD/svg11.dtd'><svg enable-background="new 0 0 512 512" height="512px" id="Layer_1" version="1.1" viewBox="0 0 512 512" width="512px" xml:space="preserve" xmlns="http://www.w3.org/2000/svg" xmlns:xlink="http://www.w3.org/1999/xlink"><g><g><path d="M506.705,300.5c-3.338-2.867-7.794-4.146-12.146-3.412l-28.978,4.643l-29.288-122.039     c-1.324-5.516-5.633-9.81-11.147-11.133l-80.929-19.346l1.086-7.183H496.94c8.323,0,15.06-6.736,15.06-15.06     s-6.736-15.059-15.06-15.059H349.854l5.997-39.676c0.117-0.75,0.176-1.5,0.176-2.25V24.912c0-4.809-2.294-9.323-6.161-12.147     l-13.47-9.867C333.808,1.015,330.69,0,327.499,0H282.94c-1.604,0-3.191,0.25-4.707,0.75L166.308,37.544     c-6.177,2.029-10.353,7.809-10.353,14.309v45.074c0,2.412,0.58,4.779,1.684,6.926l8.85,17.084l-83.482,46.622     c-4.64,2.588-7.574,7.441-7.706,12.765L72.152,302.75L48.08,315.441c-0.479,0.253-0.938,0.53-1.378,0.826     c-0.036,0.024-0.069,0.053-0.105,0.078c-0.406,0.277-0.796,0.57-1.167,0.881c-0.042,0.035-0.079,0.073-0.119,0.108     c-0.359,0.307-0.703,0.627-1.028,0.962c-0.057,0.06-0.109,0.123-0.166,0.184c-0.297,0.317-0.582,0.643-0.848,0.981     c-0.073,0.094-0.141,0.191-0.211,0.286c-0.234,0.313-0.458,0.631-0.667,0.96c-0.082,0.13-0.158,0.263-0.236,0.395     c-0.18,0.305-0.351,0.613-0.508,0.929c-0.079,0.158-0.154,0.318-0.228,0.479c-0.14,0.306-0.268,0.616-0.387,0.931     c-0.064,0.169-0.127,0.339-0.185,0.511c-0.114,0.337-0.211,0.677-0.301,1.02c-0.027,0.104-0.065,0.202-0.09,0.307L0.41,493.455     c-1.066,4.486-0.03,9.207,2.831,12.824C6.094,509.896,10.447,512,15.057,512h195.544h76.486h51.735H496.94     c8.323,0,15.06-6.735,15.06-15.059V311.957C512,307.545,510.072,303.354,506.705,300.5z M186.072,62.75l99.28-32.632h37.221     l3.339,2.441v36.294l-6.507,43.059h-26.567c-8.323,0-15.059,6.735-15.059,15.059s6.735,15.06,15.059,15.06h22.016l-2.06,13.632     l-16.769,52.523l-6.174,19.334L276.204,213.5c-5.823-5.956-15.338-6.104-21.293-0.295c-5.963,5.81-6.088,15.338-0.294,21.294     l31.133,31.984c0.005,0.005,0.009,0.011,0.014,0.016l3.302,3.391l15.183,15.599L274.16,481.882h-49.723l-3.84-45.176H256     c8.323,0,15.058-6.735,15.058-15.059c0-8.324-6.735-15.059-15.058-15.059h-37.962l-12.267-144.31l-4.147-135.765     c-0.015-0.503-0.063-1-0.127-1.493c-0.014-0.103-0.024-0.206-0.04-0.308c-0.069-0.458-0.161-0.909-0.271-1.354     c-0.031-0.125-0.063-0.248-0.098-0.372c-0.121-0.44-0.257-0.876-0.417-1.302c-0.038-0.102-0.082-0.201-0.122-0.301     c-0.168-0.422-0.352-0.836-0.557-1.24c-0.017-0.033-0.028-0.068-0.045-0.101l-13.875-26.779V62.75z M68.167,338.902     l60.575-31.932c7.36-3.882,10.177-12.984,6.302-20.353c-3.883-7.339-12.971-10.162-20.346-6.294l-12.003,6.327l2.488-96.975     l67.096-37.47l3.434,111.809l12.104,142.574h-52.287c-8.316,0-15.06,6.734-15.06,15.059c0,8.323,6.743,15.059,15.06,15.059     h54.844l3.835,45.176H34.124L68.167,338.902z M335.146,282.633c0.015-0.098,0.015-0.196,0.028-0.295     c0.043-0.328,0.071-0.658,0.094-0.988c0.015-0.218,0.035-0.435,0.04-0.652c0.009-0.377-0.006-0.753-0.024-1.13     c-0.012-0.217-0.021-0.434-0.041-0.649c-0.043-0.453-0.104-0.904-0.188-1.354c-0.035-0.188-0.085-0.373-0.128-0.56     c-0.078-0.342-0.161-0.682-0.263-1.019c-0.058-0.19-0.123-0.376-0.188-0.563c-0.114-0.331-0.239-0.657-0.377-0.98     c-0.076-0.179-0.153-0.354-0.236-0.529c-0.154-0.326-0.324-0.646-0.503-0.962c-0.091-0.161-0.179-0.323-0.275-0.481     c-0.202-0.327-0.424-0.645-0.652-0.958c-0.097-0.134-0.186-0.272-0.287-0.402c-0.338-0.433-0.696-0.854-1.088-1.256     l-17.411-17.887l23.47-73.482l72.044,17.221l26.587,110.804l-46.116,7.388c-7.574,1.206-13.015,7.911-12.662,15.572l2.647,56.53     l-15.221,3.839c-0.43,0.108-0.848,0.242-1.262,0.386c-0.133,0.046-0.266,0.093-0.396,0.143c-0.366,0.139-0.728,0.287-1.08,0.453     c-0.166,0.078-0.326,0.166-0.488,0.25c-0.202,0.104-0.4,0.212-0.597,0.324c-0.188,0.108-0.375,0.215-0.558,0.33     c-0.277,0.177-0.549,0.361-0.814,0.555c-0.189,0.139-0.372,0.285-0.555,0.432c-0.135,0.109-0.268,0.221-0.398,0.334     c-0.229,0.196-0.449,0.397-0.664,0.606c-0.188,0.183-0.373,0.367-0.551,0.559c-0.14,0.151-0.273,0.308-0.407,0.464     c-0.147,0.173-0.291,0.351-0.431,0.53c-0.115,0.149-0.233,0.295-0.343,0.448c-0.206,0.286-0.399,0.581-0.586,0.882     c-0.09,0.146-0.176,0.296-0.261,0.445c-0.134,0.233-0.261,0.472-0.382,0.714c-0.069,0.138-0.143,0.272-0.207,0.413     c-0.152,0.327-0.29,0.664-0.419,1.005c-0.067,0.177-0.128,0.355-0.188,0.534c-0.028,0.085-0.062,0.167-0.089,0.252     l-25.927,81.984h-23.162L335.146,282.633z M481.881,481.882h-122.5L379.896,417l19.015-4.794     c0.026-0.007,0.052-0.017,0.078-0.023l58.878-14.83c8.074-2.029,12.956-10.221,10.927-18.279     c-2.029-8.073-10.206-12.926-18.279-10.926l-41.095,10.351l-1.729-36.999l48.883-7.822c0.041-0.007,0.079-0.019,0.12-0.025     l25.188-4.034V481.882z" fill="#414042"/><path d="M90.352,406.589H75.293c-8.316,0-15.06,6.734-15.06,15.059c0,8.323,6.743,15.059,15.06,15.059h15.059     c8.316,0,15.059-6.735,15.059-15.059C105.41,413.323,98.668,406.589,90.352,406.589z" fill="#414042"/></g></g></svg>